<svg xmlns="http://www.w3.org/2000/svg" viewBox="0 0 51 56">
    <path fill="#ffffff" d="M35,12.5527 C38.0262,12.5527 40.4883,15.1996 40.4883,18.4531 C40.4883,21.8704 38.0776,24.5473 35,24.5473 C31.9224,24.5473 29.5117,21.8704 29.5117,18.4531 C29.5117,15.1996 31.9737,12.5527 35,12.5527 M14,15.5 C16.5502,15.5 18.625,17.8551 18.625,20.75 C18.625,23.6449 16.5502,26 14,26 C11.4498,26 9.375,23.6449 9.375,20.75 C9.375,17.8551 11.4498,15.5 14,15.5 M34.999,31.686 C38.8524,31.686 42.4046,32.7946 45.0013,34.8076 C47.192,36.5059 48.5,38.7421 48.5,40.7896 C48.5,41.3004 48.5,42 46.1738,42 L23.8261,42 C21.4999,42 21.4999,41.3004 21.4999,40.7896 C21.4999,38.7421 22.8076,36.5058 24.9981,34.8076 C27.5944,32.7947 31.1461,31.686 34.999,31.686 M14,32.5001 C18.3503,32.6077 20.1832,33.9076 20.1832,33.9076 C20.5591,33.4773 21.1935,32.7613 21.6348,32.3623 C19.5326,31.2274 16.9611,30.5001 14,30.5001 C5.5992,30.5001 0.25,36.2798 0.25,40.9609 C0.25,42.9775 1.5728,44 4.1827,44 L18.6074,44 C18.157,43.4816 17.8056,42.828 17.6278,42 L4.1827,42 C2.25,42 2.25,41.4717 2.25,40.9608 C2.25,37.4278 6.7201,32.4999 14,32.4999 M35,10.5526 C30.8711,10.5526 27.5117,14.0965 27.5117,18.453 C27.5117,22.9921 30.8008,26.5472 35,26.5472 C39.1992,26.5472 42.4883,22.992 42.4883,18.453 C42.4883,14.0966 39.1289,10.5526 35,10.5526 Z M14,13.4999 C10.3411,13.4999 7.375,16.7458 7.375,20.7499 C7.375,24.754 10.3411,27.9999 14,27.9999 C17.6589,27.9999 20.625,24.7539 20.625,20.7499 C20.625,16.7459 17.6589,13.4999 14,13.4999 Z M34.999,29.6859 C25.7275,29.6859 19.5,35.4271 19.5,40.7894 C19.5,42.9198 20.9551,43.9998 23.8262,43.9998 L46.1739,43.9998 C49.045,43.9998 50.5001,42.9197 50.5001,40.7894 C50.5001,35.4271 44.2716,29.6859 34.9991,29.6859 L34.999,29.6859 Z"/>
</svg>
