<svg xmlns="http://www.w3.org/2000/svg" viewBox="0 0 49 56">
	<path fill="#ffffff" d="M47.8447,27.501 L41.1689,20.3721 C40.2578,19.4102 39.2148,19 37.6835,19 L32.9999,19 L32.9999,15 C32.9999,12.2386 30.7614,10 27.9999,10 L5,10 C2.2385,10 3.55271368e-15,12.2386 3.55271368e-15,15 L3.55271368e-15,36 C3.55271368e-15,38.7614 2.2385,41 5,41 L6.1504,41 C6.4036,43.8719 8.812,46.125 11.75,46.125 C14.688,46.125 17.0964,43.8719 17.3496,41 L31.1504,41 C31.4036,43.8719 33.812,46.125 36.75,46.125 C39.688,46.125 42.0964,43.8719 42.3496,41 L44.9932,41 C47.5401,41 49,39.5908 49,37.1343 L49,30.3828 C49,29.2993 48.5732,28.2432 47.8447,27.501 Z M15.3245,41 C15.0782,42.7609 13.5777,44.125 11.75,44.125 C9.9223,44.125 8.4219,42.7609 8.1755,41 C8.1523,40.835 8.125,40.6712 8.125,40.5 C8.125,39.9636 8.2495,39.4585 8.4595,39 C9.032,37.7499 10.2876,36.875 11.75,36.875 C13.2124,36.875 14.468,37.7499 15.0405,39 C15.2505,39.4585 15.375,39.9636 15.375,40.5 C15.375,40.6712 15.3477,40.835 15.3245,41 Z M31,39 L17.1665,39 C16.5093,36.6227 14.3364,34.875 11.75,34.875 C9.1636,34.875 6.9907,36.6227 6.3335,39 L5,39 C3.3457,39 2,37.6542 2,36 L2,15 C2,13.3458 3.3457,12 5,12 L28,12 C29.6543,12 31,13.3458 31,15 L31,39 Z M40.3245,41 C40.0782,42.7609 38.5777,44.125 36.75,44.125 C34.9223,44.125 33.4219,42.7609 33.1755,41 C33.1523,40.835 33.125,40.6712 33.125,40.5 C33.125,39.9636 33.2495,39.4585 33.4595,39 C34.032,37.7499 35.2876,36.875 36.75,36.875 C38.2124,36.875 39.468,37.7499 40.0405,39 C40.2505,39.4585 40.375,39.9636 40.375,40.5 C40.375,40.6712 40.3477,40.835 40.3245,41 Z M47,37.1343 C47,38.4595 46.4189,39 44.9932,39 L42.1665,39 C41.5093,36.6227 39.3364,34.875 36.75,34.875 C35.3071,34.875 33.9956,35.4228 33,36.3157 L33,21 L37.6836,21 C38.6621,21 39.1943,21.1958 39.7139,21.7437 L46.4014,28.8848 C46.7764,29.2671 47,29.8272 47,30.3828 L47,37.1343 Z M43.6086,29.1127 C43.853,29.3921 44,29.6057 44,30 L36.2227,30 C35.4727,30 35,29.5234 35,28.7676 L35,23 L37.4131,23 C37.9834,23 38.4075,23.23 38.7495,23.6244 L43.6086,29.1127 Z"/>
</svg>
