<svg xmlns="http://www.w3.org/2000/svg" viewBox="0 0 40 56">
    <path fill="#000000" d="M20,10.7 C29.5393,10.7 37.3,18.4607 37.3,28 C37.3,37.5393 29.5393,45.3 20,45.3 C10.4607,45.3 2.7,37.5393 2.7,28 C2.7,18.4607 10.4607,10.7 20,10.7 M20,8.5 C9.2305,8.5 0.5,17.2305 0.5,28 C0.5,38.7695 9.2305,47.5 20,47.5 C30.7695,47.5 39.5,38.7695 39.5,28 C39.5,17.2305 30.7695,8.5 20,8.5 L20,8.5 Z M29,33 C29,32.4473 28.5522,32 28,32 L12,32 C11.4478,32 11,32.4473 11,33 C11,33.5527 11.4478,34 12,34 L28,34 C28.5522,34 29,33.5527 29,33 Z M31.9999,26 C31.9999,25.4473 31.5521,25 30.9999,25 L8.9999,25 C8.4477,25 7.9999,25.4473 7.9999,26 C7.9999,26.5527 8.4477,27 8.9999,27 L30.9999,27 C31.5521,27 31.9999,26.5527 31.9999,26 Z"/>
</svg>
