<svg xmlns="http://www.w3.org/2000/svg" viewBox="0 0 48 56">
	<path fill="#000000" d="m46.5553 27.6681a10.41 10.41 0 0 0 -2.6433-3.176 12.898 12.898 0 0 0 -3.93-2.1507 14.028 14.028 0 0 0 -4.3619-.7538c-.1407-.01-.2814-.01-.4322-.01-.603 0-1.6859.03-2.2588.1005a13.6292 13.6292 0 0 0 -3.0252.6634 13.0173 13.0173 0 0 0 -3.93 2.1507 10.4083 10.4083 0 0 0 -2.6433 3.176 8.4663 8.4663 0 0 0 .1708 8.1609 9.6142 9.6142 0 0 0 1.186 1.588 10.6752 10.6752 0 0 0 1.6885 1.5176l.211.1507a13.86 13.86 0 0 0 4.4131 1.9698 19.1708 19.1708 0 0 0 4.299.4824c.402 0 .8141-.01 1.2262-.04h.1809a20.7883 20.7883 0 0 0 2.2312 1.2763 17.57 17.57 0 0 0 2.1407.8945 5.3063 5.3063 0 0 0 1.5878.3316 1.08 1.08 0 0 0 .7739-.2613.9119.9119 0 0 0 .3216-.6533 1.1967 1.1967 0 0 0 -.2815-.7839c-.221-.2613-.4824-.6031-.804-1.0252a12.5728 12.5728 0 0 1 -.8141-1.196c-.02-.03.04-.1608.07-.1708a10.42 10.42 0 0 0 4.05-3.4875 8.448 8.448 0 0 0 1.5183-4.8443 8.2907 8.2907 0 0 0 -.9447-3.9096zm-2.2312 7.6282a8.3359 8.3359 0 0 1 -3.2966 2.8142 2.1523 2.1523 0 0 0 -1.0854 1.3266 2.0632 2.0632 0 0 0 .1709 1.6382c.01.02.02.03.03.05-.11-.05-.2211-.1-.3417-.1608a18.6866 18.6866 0 0 1 -2.02-1.1559 2.1979 2.1979 0 0 0 -1.2362-.3215h-.1709c-.3618.03-.7236.04-1.0754.04a16.721 16.721 0 0 1 -3.7965-.4221 12.4286 12.4286 0 0 1 -2.985-1.186c-.2713-.1508-.5427-.3216-.794-.4925a7.5181 7.5181 0 0 1 -1.0251-.8241 7.8848 7.8848 0 0 1 -1.4674-1.7991 6.4587 6.4587 0 0 1 -.1308-6.1804 8.4059 8.4059 0 0 1 2.151-2.5729 10.9211 10.9211 0 0 1 3.3065-1.8091 12.7522 12.7522 0 0 1 3.1458-.6232c.3216-.02 1.1533-.03 1.4849-.03.3619 0 .7237.01 1.0855.04a12.4791 12.4791 0 0 1 3.0553.6131 11.0977 11.0977 0 0 1 3.3167 1.8092 8.4173 8.4173 0 0 1 2.1307 2.5628 6.213 6.213 0 0 1 .7135 2.9649 6.4836 6.4836 0 0 1 -1.1658 3.7186zm-13.4241-19.6254a18.268 18.268 0 0 0 -5.5981-3.0654 23.2813 23.2813 0 0 0 -7.2238-1.1055 20.7964 20.7964 0 0 0 -6.8443 1.1055 18.1537 18.1537 0 0 0 -5.5981 3.0654 14.5464 14.5464 0 0 0 -3.7689 4.5327 11.7279 11.7279 0 0 0 -1.3568 5.568 13.6656 13.6656 0 0 0 2.1608 7.4147 15.1353 15.1353 0 0 0 5.8492 5.0252.0845.0845 0 0 1 .04.1105 15.9945 15.9945 0 0 1 -1.176 1.779c-.4522.603-.8241 1.0954-1.1357 1.4673a1.6471 1.6471 0 0 0 -.4019 1.1156 1.3831 1.3831 0 0 0 .4522.9347 1.576 1.576 0 0 0 1.1156.3719 7.3006 7.3006 0 0 0 2.2513-.4724 26.4909 26.4909 0 0 0 3.0654-1.2764 28.1581 28.1581 0 0 0 3.196-1.789 1.6481 1.6481 0 0 1 .191-.09c.6633.05 1.3166.08 1.96.08a24.1784 24.1784 0 0 0 5.6563-.6533c.1307-.03.2513-.07.3719-.1005a11.8356 11.8356 0 0 1 -1.5677-1.6889 22.3119 22.3119 0 0 1 -4.46.4322c-.5829 0-1.1859-.03-1.8091-.07l-.07-.01h-.08a2.3717 2.3717 0 0 0 -1.2764.412 27.0214 27.0214 0 0 1 -2.985 1.6684 25.586 25.586 0 0 1 -2.8342 1.186c-.1206.04-.2312.08-.3417.1105.1005-.1306.211-.2713.3216-.4221a20.518 20.518 0 0 0 1.3066-1.99 2.0973 2.0973 0 0 0 -.8845-2.9046 13.1092 13.1092 0 0 1 -5.0855-4.3618 11.6 11.6 0 0 1 -1.8202-6.279 9.7382 9.7382 0 0 1 1.1156-4.6332 12.672 12.672 0 0 1 3.2663-3.91 16.232 16.232 0 0 1 4.9851-2.7236 18.7722 18.7722 0 0 1 6.191-.995 21.1057 21.1057 0 0 1 6.5609.995 16.1166 16.1166 0 0 1 4.985 2.7236 13.5029 13.5029 0 0 1 2.07 2.0805 17.1418 17.1418 0 0 1 2.3015-.2412 14.7186 14.7186 0 0 0 -3.0954-3.3968z"/>
</svg>
