<svg xmlns="http://www.w3.org/2000/svg" viewBox="0 0 38 56">
	<path fill="#000000" d="m18.99 8.5a15.9441 15.9441 0 0 1 6.311 1.2508 16.4078 16.4078 0 0 1 5.1824 3.5037 16.5974 16.5974 0 0 1 3.51 5.2 15.9207 15.9207 0 0 1 1.2566 6.322 15.6343 15.6343 0 0 1 -.9692 5.4367 16.5017 16.5017 0 0 1 -2.8252 4.8559 19.5107 19.5107 0 0 1 -4.481 3.9163c-1.5338.9637-2.8464 1.8513-3.9023 2.6391a15.2865 15.2865 0 0 0 -2.8407 2.6924 10.8178 10.8178 0 0 0 -1.2332 1.9647 10.6925 10.6925 0 0 0 -1.2473-1.974 15.7933 15.7933 0 0 0 -2.8308-2.68c-1.0519-.79-2.3622-1.6782-3.8868-2.6366a19.1337 19.1337 0 0 1 -4.4962-3.9181 16.606 16.606 0 0 1 -2.8193-4.86 15.6353 15.6353 0 0 1 -.968-5.4363 15.92 15.92 0 0 1 1.2564-6.3224 16.6091 16.6091 0 0 1 3.5093-5.1992 16.4175 16.4175 0 0 1 5.1843-3.5042 15.8832 15.8832 0 0 1 6.29-1.2508m0-2a17.7873 17.7873 0 0 0 -7.0772 1.4122 18.319 18.319 0 0 0 -5.8118 3.9295 18.5207 18.5207 0 0 0 -3.9317 5.823 17.8251 17.8251 0 0 0 -1.4193 7.1118 17.5475 17.5475 0 0 0 1.092 6.13 18.5129 18.5129 0 0 0 3.1565 5.4435 21.0282 21.0282 0 0 0 4.9629 4.329q2.2464 1.4121 3.7583 2.5478a13.7281 13.7281 0 0 1 2.472 2.3332 9.1847 9.1847 0 0 1 1.5105 2.8143q.3887 1.1257 1.2878 1.1257t1.3073-1.1257a9.3193 9.3193 0 0 1 1.501-2.8143 13.2414 13.2414 0 0 1 2.471-2.3332q1.5214-1.1352 3.7693-2.5478a21.4369 21.4369 0 0 0 4.9529-4.329 18.41 18.41 0 0 0 3.1655-5.444 17.5485 17.5485 0 0 0 1.093-6.1295 17.8257 17.8257 0 0 0 -1.42-7.1118 18.504 18.504 0 0 0 -3.9317-5.823 18.3147 18.3147 0 0 0 -5.8108-3.9295 17.8471 17.8471 0 0 0 -7.0975-1.4122zm5.61 15.3835a3.3825 3.3825 0 0 0 -1.568 2.8223 3.2221 3.2221 0 0 0 1.968 2.9827 6.8829 6.8829 0 0 1 -1.008 2.1008c-.624.898-1.312 1.812-2.304 1.812-1.008 0-1.248-.5933-2.416-.5933-1.12 0-1.52.6094-2.432.6094-.928 0-1.568-.8339-2.304-1.8762a9.1806 9.1806 0 0 1 -1.536-4.8912c0-2.87 1.872-4.3939 3.696-4.3939.992 0 1.792.6414 2.4.6414.592 0 1.488-.6735 2.592-.6735a3.4156 3.4156 0 0 1 2.912 1.4595zm-5.424-1.62c-.08 0-.144-.016-.208-.016 0-.0481-.016-.16-.016-.2726a3.287 3.287 0 0 1 .816-2.0045 3.1859 3.1859 0 0 1 2.16-1.1225 1.5618 1.5618 0 0 1 .016.2886 3.3873 3.3873 0 0 1 -.768 2.0687 2.8606 2.8606 0 0 1 -2 1.0586z"/>
</svg>
