<svg width="21" height="25" xmlns="http://www.w3.org/2000/svg"><path d="m0 0h21v25h-21z" fill="none"/><path d="m18.5 4h-16a2.50263 2.50263 0 0 0 -2.5 2.5v9a2.50263 2.50263 0 0 0 2.5 2.5h2.5v2.44922a.74254.74254 0 0 0 .43945.68262.74212.74212 0 0 0 .80469-.11817l3.37305-2.95167a.251.251 0 0 1 .165-.062h8.71781a2.50263 2.50263 0 0 0 2.5-2.5v-9a2.50263 2.50263 0 0 0 -2.5-2.5zm-11.5 10h-2a.5.5 0 0 1 0-1h2a.5.5 0 0 1 0 1zm1-2h-3a.5.5 0 0 1 0-1h3a.5.5 0 0 1 0 1zm4 2h-3a.5.5 0 0 1 0-1h3a.5.5 0 0 1 0 1zm4 0h-2a.5.5 0 0 1 0-1h2a.5.5 0 0 1 0 1zm0-2h-6a.5.5 0 0 1 0-1h6a.5.5 0 0 1 0 1z" fill="#fff"/></svg>