<svg width="21" height="25" xmlns="http://www.w3.org/2000/svg"><path d="m0 0h21v25h-21z" fill="none"/><g fill="#fff"><path d="m8 12h-3a.5.5 0 0 1 0-1h3a.5.5 0 0 1 0 1z"/><path d="m7 14h-2a.5.5 0 0 1 0-1h2a.5.5 0 0 1 0 1z"/><path d="m16 14h-2a.5.5 0 0 1 0-1h2a.5.5 0 0 1 0 1z"/><path d="m12 14h-3a.5.5 0 0 1 0-1h3a.5.5 0 0 1 0 1z"/><path d="m16 12h-6a.5.5 0 0 1 0-1h6a.5.5 0 0 1 0 1z"/><path d="m5.752 21.2007a.75152.75152 0 0 1 -.3125-.06885.74252.74252 0 0 1 -.4395-.68262v-2.44923h-2.5a2.50263 2.50263 0 0 1 -2.5-2.5v-9a2.50263 2.50263 0 0 1 2.5-2.5h16a2.50263 2.50263 0 0 1 2.5 2.5v9a2.50263 2.50263 0 0 1 -2.5 2.5h-8.71777a.63645.63645 0 0 0 -.2654.09972l-3.27269 2.914a.74468.74468 0 0 1 -.49214.18698zm-3.252-16.2007a1.50164 1.50164 0 0 0 -1.5 1.5v9a1.50164 1.50164 0 0 0 1.5 1.5h2.5a1.001 1.001 0 0 1 1 1v1.89844l2.959-2.58936a1.25044 1.25044 0 0 1 .82323-.30908h8.71777a1.50164 1.50164 0 0 0 1.5-1.5v-9a1.50164 1.50164 0 0 0 -1.5-1.5z"/></g></svg>