<svg width="56" height="56" xmlns="http://www.w3.org/2000/svg"><path d="m0 0h56v56h-56z" fill="none"/><path d="m24.42545 25.27791a3.11341 3.11341 0 0 1 1.08878-2.42272l2.09524-2.0607h-.08428c-5.6693 0-9.88721 4.48342-9.88721 10.582a10.3484 10.3484 0 0 0 20.6966 0 4.00782 4.00782 0 1 1 8.01542 0 18.35 18.35 0 0 1 -36.7 0 17.74383 17.74383 0 0 1 17.736-18.04508l-1.8718-1.83792a3.11339 3.11339 0 0 1 -1.08878-2.42271 3.83824 3.83824 0 0 1 3.82595-3.87078 3.48968 3.48968 0 0 1 2.56956 1.08605l7.82039 7.99217a3.76391 3.76391 0 0 1 1.25734 2.84043 3.92685 3.92685 0 0 1 -1.25734 2.86827l-7.82039 8.02a3.52556 3.52556 0 0 1 -2.56956 1.05819 3.80252 3.80252 0 0 1 -3.82592-3.7872z" fill="#fff"/></svg>