<svg height="75" width="75" xmlns="http://www.w3.org/2000/svg"><path d="m0 0h75v75h-75z" fill="none"/><path d="m32.435 33.0377a4.4305 4.4305 0 0 1 1.54289-3.44352l2.96755-2.929h-.11823c-8.033 0-14.00914 6.37249-14.00914 15.04067a14.66186 14.66186 0 0 0 29.32371 0 5.67941 5.67941 0 1 1 11.35818 0 26 26 0 1 1 -52 0c0-14.32822 10.96244-25.52957 25.12889-25.64831l-2.651-2.61233a4.43049 4.43049 0 0 1 -1.54285-3.44349 5.44732 5.44732 0 0 1 5.42116-5.50172 4.937 4.937 0 0 1 3.64084 1.54365l11.08063 11.35967a5.357 5.357 0 0 1 1.78037 4.03723 5.58839 5.58839 0 0 1 -1.78033 4.07682l-11.08067 11.39924a4.98778 4.98778 0 0 1 -3.6408 1.50407 5.39626 5.39626 0 0 1 -5.4212-5.38298z" fill="#fff"/></svg>