<svg height="25" width="21" xmlns="http://www.w3.org/2000/svg"><path d="m0 0h21v25h-21z" fill="none"/><g fill="#fff"><path d="m18.5 4h-16a2.50294 2.50294 0 0 0 -2.5 2.5v9a2.50294 2.50294 0 0 0 2.5 2.5h2.90786l.92859-1h-3.83645a1.50164 1.50164 0 0 1 -1.5-1.5v-9a1.50164 1.50164 0 0 1 1.5-1.5h16a1.50164 1.50164 0 0 1 1.5 1.5v9a1.50164 1.50164 0 0 1 -1.5 1.5h-3.86212l.92859 1h2.93353a2.50294 2.50294 0 0 0 2.5-2.5v-9a2.50294 2.50294 0 0 0 -2.5-2.5z"/><path d="m16.39205 20.32933-5.52465-5.91988a.503.503 0 0 0 -.7348 0l-5.5246 5.91988a.39889.39889 0 0 0 .29391.67067h11.19618a.39889.39889 0 0 0 .29396-.67067z"/></g></svg>