<svg width="21" height="25" xmlns="http://www.w3.org/2000/svg" viewBox="0 0 21 25"><title>speaker.slash.fill_reduced@1x</title><rect width="21" height="25" fill="none"/><path d="M15.0535,20.83783a.55655.55655,0,0,0,.78293.00244.548.548,0,0,0,.003-.77812L.9465,5.16168a.55776.55776,0,0,0-.78293-.00244.548.548,0,0,0-.00295.77812Z" fill="#fff"/><path d="M1.5,9A1.50062,1.50062,0,0,0,0,10.5v4A1.50062,1.50062,0,0,0,1.5,16H4.4l5.0127,4.73083A.93.93,0,0,0,11,20.14825V18.33807L1.66559,9Z" fill="#fff"/><path d="M11,4.83215a.93.93,0,0,0-1.58728-.58258L5.39526,8.05682,11,13.66382Z" fill="#fff"/></svg>