<svg width="21" height="25" xmlns="http://www.w3.org/2000/svg" viewBox="0 0 21 25"><title>speaker.2.fill_reduced@1x</title><rect width="21" height="25" fill="none"/><path d="M15.44879,16.3875a.55051.55051,0,0,1-.45716-.85518,5.45379,5.45379,0,0,0-.02246-6.06147.55025.55025,0,1,1,.91236-.61537,6.55712,6.55712,0,0,1,.02637,7.28636A.54931.54931,0,0,1,15.44879,16.3875Z" fill="#fff"/><path d="M18.524,19a.52388.52388,0,0,1-.32053-.109.55375.55375,0,0,1-.10621-.76458,9.543,9.543,0,0,0,0-11.25256.55375.55375,0,0,1,.10621-.76458.52648.52648,0,0,1,.74726.10853,10.65433,10.65433,0,0,1,0,12.56466A.52777.52777,0,0,1,18.524,19Z" fill="#fff"/><path d="M11,20.14826a.93.93,0,0,1-1.58725.58258L4.4,16H1.5A1.50064,1.50064,0,0,1,0,14.5v-4A1.50064,1.50064,0,0,1,1.5,9H4.4L9.41275,4.24957A.93.93,0,0,1,11,4.83215Z" fill="#fff"/></svg>