<svg xmlns="http://www.w3.org/2000/svg" viewBox="0 0 56 56">
    <path fill="#ffffff" d="m11.994 21.027a3.851 3.851 0 0 1 -3.086 1.455 4.359 4.359 0 0 1 1.1-3.189 4.619 4.619 0 0 1 3.059-1.583 4.652 4.652 0 0 1 -1.07 3.317m1.057 1.684c-1.7-.1-3.153.967-3.966.967s-2.06-.916-3.408-.891a5.024 5.024 0 0 0 -4.272 2.6c-1.83 3.155-.483 7.836 1.3 10.406.864 1.271 1.906 2.671 3.279 2.621 1.3-.051 1.806-.84 3.382-.84s2.034.84 3.407.814c1.424-.025 2.314-1.272 3.179-2.544a11.265 11.265 0 0 0 1.423-2.926 4.623 4.623 0 0 1 -2.771-4.2 4.709 4.709 0 0 1 2.238-3.944 4.873 4.873 0 0 0 -3.789-2.06m7.975-2.4v3.456h-2.131v2.28h2.128v8.419c0 2.793 1.12 3.9 4 3.9a9.6 9.6 0 0 0 1.646-.125v-2.3a9.3 9.3 0 0 1 -1 .069c-1.216 0-1.769-.58-1.769-1.838v-8.129h2.775v-2.28h-2.78v-3.456zm20.479 3.444h-2.982l-3.6 11.642h-.069l-3.6-11.638h-3.037l5.132 14.478h3.052zm8.3 8.546h5.656v-2.61h-5.654v-5.936h-2.637v5.936h-5.657v2.606h5.657v5.94h2.637z"/>
</svg>
